<svg xmlns="http://www.w3.org/2000/svg" width="22" height="22" viewBox="0 0 22 22"><defs><style>.a{fill:#fff;}</style></defs><g transform="translate(-12 -602)"><circle class="a" cx="10" cy="10" r="10" transform="translate(13 603)"/><g transform="translate(-1034.903 72.6)"><path d="M1057.9,529.4h0a11,11,0,0,0,0,22h0a11,11,0,0,0,0-22Zm0,19.5h0a8.5,8.5,0,0,1,0-17h0a8.5,8.5,0,0,1,0,17Z"/><path d="M1057.9,543.872a1.639,1.639,0,1,0,1.639,1.639A1.639,1.639,0,0,0,1057.9,543.872Z"/><path d="M1060.18,533.85a4.97,4.97,0,0,0-2.17-.457H1058a4.8,4.8,0,0,0-2.328.549,4.049,4.049,0,0,0-1.532,1.4,3.19,3.19,0,0,0-.533,1.7,1.244,1.244,0,0,0,.39.884,1.3,1.3,0,0,0,.963.4,1.324,1.324,0,0,0,1.3-1.1,3.326,3.326,0,0,1,.644-1.208,1.451,1.451,0,0,1,1.094-.355,1.382,1.382,0,0,1,1.038.365,1.135,1.135,0,0,1,.386.874.955.955,0,0,1-.12.472,2.03,2.03,0,0,1-.34.448q-.222.225-.727.664a13.021,13.021,0,0,0-.951.908,3.115,3.115,0,0,0-.837,2.229,1.345,1.345,0,0,0,.372,1.016,1.253,1.253,0,0,0,.9.351,1.174,1.174,0,0,0,1.233-1.057q.086-.384.128-.534a1.442,1.442,0,0,1,.1-.263,1.494,1.494,0,0,1,.205-.287,5.51,5.51,0,0,1,.413-.412q.993-.89,1.378-1.265a3.958,3.958,0,0,0,.709-.955,2.79,2.79,0,0,0,.31-1.332,3.154,3.154,0,0,0-.533-1.762A3.629,3.629,0,0,0,1060.18,533.85Z"/></g></g></svg>