<svg xmlns="http://www.w3.org/2000/svg" width="32" height="32" viewBox="0 0 32 32"><defs><style>.a{fill:#fff;stroke:#d1d1d1;stroke-width:2px;}.b{fill:#d1d1d1;}.c{stroke:none;}.d{fill:none;}</style></defs><g transform="translate(-1096 -285)"><g class="a" transform="translate(1096 285)"><circle class="c" cx="16" cy="16" r="16"/><circle class="d" cx="16" cy="16" r="15"/></g><g transform="translate(1103 289.46)"><path class="b" d="M5.986,19.748v-2.4A.347.347,0,0,1,6.333,17h5.583a2.876,2.876,0,1,0,0-5.752l-6.454,0,2.5,2.486a.353.353,0,0,1,0,.486L6.407,15.768a.344.344,0,0,1-.486,0L.1,9.947a.343.343,0,0,1,0-.486l5.82-5.82a.344.344,0,0,1,.486,0L7.958,5.192a.344.344,0,0,1,0,.486l-2.5,2.477,6.454,0a5.967,5.967,0,1,1,0,11.935l-5.583,0A.347.347,0,0,1,5.986,19.748Z" transform="translate(0 0)"/></g></g></svg>